{"title":"Callas Forever (2002)[Maria Callas sings Carmen](Gay interest)","uid":4310652,"size":1468620973,"categoryP":"video","categoryS":"movies","magnet":"?xt=urn:btih:a25e109f0ad99d8500cc4b3eaa74362284066b42&amp;dn=Callas+Forever+%282002%29%5BMaria+Callas+sings+Carmen%5D%28Gay+interest%29&amp;tr=udp%3A%2F%2Ftracker.openbittorrent.com%3A80&amp;tr=udp%3A%2F%2Fopen.demonii.com%3A1337&amp;tr=udp%3A%2F%2Ftracker.coppersurfer.tk%3A6969&amp;tr=udp%3A%2F%2Fexodus.desync.com%3A6969","seeders":3,"leechers":5,"uploader":"Kuthumi","files":-1,"time":1216796188,"description":"Director: Franco Zefirelli\n &lt;a href=&quot;\nhttp://www.imdb.com/title/tt0274407/&quot; rel=&quot;nofollow&quot; target=&quot;_NEW&quot;&gt;\nhttp://www.imdb.com/title/tt0274407/&lt;/a&gt;\n\nFantastic fictional drama about the ageing Maria Callas who is persuaded to make a film version of the opera 'Carmen' using her own recordings from the days when her voice was at its peak. Great scenes and music from the festive opera; convincing portrait of the diva's strong personality. With Jeremy Irons as her gay manager.\n\n'I would rank this among the very best films about opera ever made.' (Comment on Imdb)\n\nThis is not my rip; I found it at another site, but thought it should be shared here. Language is mostly English. Some very short and less significant sequences in Spanish and Italian have French subtitles.\n\nDVDrip XviD, AC3\nWidescreen 720x384, great picture quality and stereo sound.\nBurn tested, runs well in both my standalone DivX players.\n\nNote that the ripper has used BVOP (Packed Bitstream), which is not always tolerated by older standalone players. Run the file through Dr. DivX or ConvertXtoDVD if you have to.\n\n\nFormat/Info                      : Audio Video Interleave\nFile size                        : 1.37 GiB\nDuration                         : 1h 44mn\nOveral bit rate                  : 1880 Kbps\nWriting application              : VirtualDubMod 1.5.4.1 (build 2178/release)\nWriting library                  : VirtualDubMod build 2178/release\nIAS1                             : English\n\nVideo\nFormat                           : MPEG-4 Visual\nFormat profile                   : Streaming Video@L1\nFormat settings, BVOP            : Yes\nFormat settings, QPel            : No\nFormat settings, GMC             : No warppoints\nFormat settings, Matrix          : Custom\nCodec ID                         : XVID\nCodec ID/Hint                    : XviD\nDuration                         : 1h 44mn\nBit rate                         : 1194 Kbps\nWidth                            : 720 pixels\nHeight                           : 384 pixels\nDisplay aspect ratio             : 1.875\nFrame rate                       : 25.000 fps\nResolution                       : 8 bits\nColorimetry                      : 4:2:0\nScan type                        : Progressive\nBits/(Pixel*Frame)               : 0.173\nStream size                      : 890 MiB\nWriting library                  : XviD 1.2.0.dev47 (UTC 2006-11-01)\n\nAudio\nFormat                           : AC-3\nFormat/Info                      : Audio Coding 3\nCodec ID                         : 2000\nDuration                         : 1h 44mn\nBit rate mode                    : Constant\nBit rate                         : 448 Kbps\nChannel(s)                       : 6 channels\nChannel positions                : Front: L C R, Rear: L R, LFE\nSampling rate                    : 48.0 KHz\nStream size                      : 272 MiB\n\n","torrent":{"xt":"urn:btih:a25e109f0ad99d8500cc4b3eaa74362284066b42","amp;dn":"Callas+Forever+%282002%29%5BMaria+Callas+sings+Carmen%5D%28Gay+interest%29","amp;tr":["udp%3A%2F%2Ftracker.openbittorrent.com%3A80","udp%3A%2F%2Fopen.demonii.com%3A1337","udp%3A%2F%2Ftracker.coppersurfer.tk%3A6969","udp%3A%2F%2Fexodus.desync.com%3A6969"],"infoHash":"a25e109f0ad99d8500cc4b3eaa74362284066b42","infoHashBuffer":{"type":"Buffer","data":[162,94,16,159,10,217,157,133,0,204,75,62,170,116,54,34,132,6,107,66]},"announce":[],"urlList":[]}}